<?xml version="1.0" encoding="utf-8"?>
<!-- Generator: Adobe Illustrator 27.2.0, SVG Export Plug-In . SVG Version: 6.00 Build 0)  -->
<svg version="1.1" id="Layer_1" xmlns="http://www.w3.org/2000/svg" xmlns:xlink="http://www.w3.org/1999/xlink" x="0px" y="0px"
	 viewBox="0 0 700 700" style="enable-background:new 0 0 700 700;" xml:space="preserve">
<g>
	<path style="fill:#C9C9D5;" d="M588.9,137.4c-54.1-54.1-141.8-54.1-195.9,0L99.2,431.2c-38.1,38.1-38.1,100.2,0,138.3
		s100.2,38.1,138.3,0l293.8-293.8c22.1-22.1,22.1-58.5,0-80.7c-22.1-22.1-58.5-22.1-80.7,0L197.1,448.5c-3.1,3-4.9,7.2-4.9,11.6
		c0,4.4,1.7,8.5,4.8,11.6c3.1,3.1,7.3,4.8,11.6,4.8c4.4,0,8.5-1.8,11.6-4.9L473.6,218c9.8-9.8,24.8-9.8,34.6,0
		c9.8,9.8,9.8,24.8,0,34.6L214.4,546.4c-25.7,25.7-66.4,25.7-92.2,0c-25.7-25.7-25.7-66.4,0-92.2L416,160.4
		c41.7-41.7,108.1-41.7,149.8,0c41.7,41.7,41.7,108.1,0,149.8l-265,265c-3.1,3-4.9,7.2-4.9,11.6c0,4.4,1.7,8.6,4.8,11.6
		c3.1,3.1,7.3,4.8,11.6,4.8c4.4,0,8.5-1.8,11.6-4.9l265-265C642.9,279.2,642.9,191.4,588.9,137.4L588.9,137.4z"/>
</g>
</svg>
