<?xml version="1.0" encoding="utf-8"?>
<!-- Generator: Adobe Illustrator 27.2.0, SVG Export Plug-In . SVG Version: 6.00 Build 0)  -->
<svg version="1.1" id="Layer_1" xmlns="http://www.w3.org/2000/svg" xmlns:xlink="http://www.w3.org/1999/xlink" x="0px" y="0px"
	 viewBox="0 0 700 700" style="enable-background:new 0 0 700 700;" xml:space="preserve">
<g>
	<path style="fill:#9293AB;" d="M428.3,589.4c0,43.2-35,78.3-78.3,78.3s-78.3-35-78.3-78.3c0-43.2,35-78.3,78.3-78.3
		S428.3,546.2,428.3,589.4"/>
	<path style="fill:#9293AB;" d="M428.3,350c0,43.2-35,78.3-78.3,78.3s-78.3-35-78.3-78.3s35-78.3,78.3-78.3S428.3,306.8,428.3,350"
		/>
	<path style="fill:#9293AB;" d="M428.3,110.6c0,43.2-35,78.3-78.3,78.3s-78.3-35-78.3-78.3c0-43.2,35-78.3,78.3-78.3
		S428.3,67.3,428.3,110.6"/>
</g>
</svg>
